<!-- icon666.com - MILLIONS vector ICONS FREE --><svg version="1.1" id="Layer_1" xmlns="http://www.w3.org/2000/svg" xmlns:xlink="http://www.w3.org/1999/xlink" x="0px" y="0px" viewBox="0 0 321.52 321.52" style="enable-background:new 0 0 321.52 321.52;" xml:space="preserve"><g><g><path d="M93.12,77.667v77.76l67.627-38.4L93.12,77.667z M106.987,101.773l26.56,15.36l-26.56,15.253V101.773z"></path></g></g><g><g><path d="M117.013,32.973c-46.4,0-84.053,37.653-84.053,84.053c0,46.4,37.653,84.053,84.053,84.053 c46.4,0,84.053-37.653,84.053-84.053C201.067,70.627,163.413,32.973,117.013,32.973z M117.013,187.213 c-38.72,0-70.187-31.467-70.187-70.187c0-38.72,31.467-70.187,70.187-70.187c38.72,0,70.187,31.467,70.187,70.187 C187.2,155.747,155.733,187.213,117.013,187.213z"></path></g></g><g><g><path d="M308.8,247.053l-52.373-52.373l-0.107-0.107c-2.56-2.453-5.973-3.84-9.6-3.84s-7.04,1.387-9.6,3.947l-5.973,5.973 l-17.6-17.6c12.907-18.773,20.48-41.6,20.48-66.027c0-64.533-52.48-117.013-117.013-117.013S0,52.493,0,117.027 S52.48,234.04,117.013,234.04c24.427,0,47.147-7.573,66.027-20.48l17.6,17.6l-5.973,5.973c-2.56,2.453-4.053,5.973-4.053,9.6 c0,3.52,1.493,7.04,4.053,9.6l52.48,52.373c8.213,8.32,19.2,12.8,30.827,12.8s22.613-4.587,30.827-12.8 C325.76,291.747,325.76,264.013,308.8,247.053z M117.013,220.173c-56.853,0-103.147-46.293-103.147-103.147 S60.16,13.88,117.013,13.88S220.16,60.173,220.16,117.027S173.867,220.173,117.013,220.173z M194.027,205.027 c3.84-3.413,7.573-7.04,10.987-10.88l16.32,16.32l-10.88,10.88L194.027,205.027z M298.987,299 c-5.547,5.547-13.013,8.64-21.013,8.64c-7.893,0-15.36-3.093-21.013-8.747l-52.267-52.16l42.027-42.027l52.267,52.267 C310.613,268.6,310.613,287.373,298.987,299z"></path></g></g></svg>