<!-- icon666.com - MILLIONS vector ICONS FREE --><svg viewBox="0 -12 512 511" xmlns="http://www.w3.org/2000/svg"><path d="m486.605469 322.164062c8.535156-25.125 12.859375-51.398437 12.859375-78.199218 0-65.03125-25.324219-126.167969-71.308594-172.15625-45.988281-45.984375-107.125-71.308594-172.15625-71.308594-54.050781 0-105.25 17.359375-148.0625 50.203125l-5.949219 4.5625 29.980469 39.078125 5.949219-4.5625c34.132812-26.183594 74.964843-40.023438 118.082031-40.023438 107.085938 0 194.207031 87.121094 194.207031 194.207032 0 18.382812-2.546875 36.472656-7.582031 53.90625l-22.144531-12.230469 1.996093 104.523437 89.523438-53.976562zm-4.597657 14.59375-45.03125 27.152344-1.003906-52.582031 15.265625 8.433594c4.429688-13.011719 13.96875-38.398438 13.96875-75.796875 0-115.355469-93.851562-209.207032-209.207031-209.207032-43.933594 0-85.667969 13.34375-121.179688 38.664063l-11.730468-15.289063c38.910156-27.921874 84.699218-42.636718 132.910156-42.636718 61.023438 0 118.398438 23.765625 161.550781 66.917968 43.152344 43.152344 66.914063 100.527344 66.914063 161.550782 0 32.386718-6.046875 57.332031-16.320313 85.136718zm0 0"></path><path d="m277.140625 60.648438-10.140625 27.792968c-90.246094-6.34375-166.914062 65.351563-166.914062 155.523438 0 31.636718 9.4375 62.105468 27.285156 88.121094l4.242187 6.183593 40.617188-27.871093-4.246094-6.183594c-12.195313-17.773438-18.640625-38.605469-18.640625-60.25 0-56.492188 44.144531-102.867188 99.75-106.4375l-7.785156 21.339844 102.964844-18.089844zm-21.140625 61.660156c-67.082031 0-121.65625 54.574218-121.65625 121.65625 0 22.167968 5.933594 43.59375 17.222656 62.425781l-15.90625 10.914063c-13.484375-22.0625-20.574218-47.261719-20.574218-73.339844 0-83.210938 72.292968-149.121094 156.183593-140.089844l5.835938.628906 5.21875-14.308594 33.773437 40.304688-51.796875 9.101562 6.148438-16.851562c-11.191407-.386719-12.296875-.441406-14.449219-.441406zm0 0"></path><path d="m187.023438 259.460938v24.328124l68.976562 39.820313 68.976562-39.820313v-79.648437l-68.976562-39.820313-68.976562 39.820313v35.324219h15v-26.664063l53.976562-31.164062 53.976562 31.164062v62.328125l-53.976562 31.164063-53.976562-31.164063v-15.667968zm0 0"></path><path d="m280.832031 243.960938c0-13.691407-11.140625-24.832032-24.832031-24.832032s-24.832031 11.140625-24.832031 24.832032c0 13.691406 11.140625 24.832031 24.832031 24.832031s24.832031-11.136719 24.832031-24.832031zm-34.667969 0c0-5.421876 4.414063-9.835938 9.835938-9.835938s9.835938 4.414062 9.835938 9.835938c0 5.421874-4.414063 9.835937-9.835938 9.835937s-9.835938-4.414063-9.835938-9.835937zm0 0"></path><path d="m380.386719 149.660156-40.613281 27.867188 4.242187 6.1875c12.195313 17.773437 18.640625 38.609375 18.640625 60.25 0 56.492187-44.144531 102.867187-99.75 106.4375l7.78125-21.339844-102.960938 18.089844 67.132813 80.128906 10.140625-27.792969c3.679688.257813 7.359375.390625 11 .390625 37.691406 0 74.101562-13.6875 102.523438-38.546875l-9.875-11.289062c-25.6875 22.464843-58.589844 34.839843-92.648438 34.839843-8.667969 0-14.449219-.738281-21.105469-1.457031l-5.222656 14.3125-33.769531-40.308593 51.792968-9.101563-6.148437 16.863281c11.394531.378906 12.398437.429688 14.453125.429688 67.078125 0 121.65625-54.574219 121.65625-121.65625 0-22.167969-5.933594-43.59375-17.222656-62.421875l15.90625-10.917969c13.484375 22.066406 20.574218 47.265625 20.574218 73.339844 0 34.058594-12.371093 66.960937-34.832031 92.648437l11.289063 9.871094c24.851562-28.421875 38.539062-64.828125 38.539062-102.519531 0-31.632813-9.433594-62.101563-27.28125-88.117188zm0 0"></path><path d="m374.078125 398.148438c-34.132813 26.183593-74.960937 40.023437-118.078125 40.023437-107.085938 0-194.207031-87.121094-194.207031-194.207031 0-18.382813 2.546875-36.472656 7.582031-53.90625l22.140625 12.230468-1.992187-104.523437-89.523438 53.976563 25.394531 14.023437c-8.535156 25.125-12.859375 51.398437-12.859375 78.199219 0 64.363281 24.882813 125.050781 70.066406 170.878906l10.679688-10.527344c-42.398438-43.007812-65.746094-99.957031-65.746094-160.351562 0-32.4375 6.070313-57.402344 16.320313-85.136719l-13.867188-7.65625 45.035157-27.152344 1.003906 52.582031-15.269532-8.433593c-4.070312 11.972656-13.964843 37.886719-13.964843 75.796875 0 115.359375 93.851562 209.207031 209.207031 209.207031 43.933594 0 85.667969-13.34375 121.179688-38.664063l11.730468 15.289063c-38.910156 27.917969-84.699218 42.636719-132.910156 42.636719-54.582031 0-107.339844-19.492188-148.558594-54.882813l-9.769531 11.378907c43.933594 37.722656 100.164063 58.5 158.328125 58.5 54.050781 0 105.25-17.359376 148.058594-50.203126l5.949218-4.5625-29.980468-39.078124zm0 0"></path><path d="m256.613281 298.015625-7.5-12.988281 42.214844-24.371094 7.5 12.988281zm46.503907-40.550781h-15v-15h15zm0-24.996094h-15v-15h15zm0 0"></path></svg>